<svg width="16" height="12" viewBox="0 0 16 12" fill="none" xmlns="http://www.w3.org/2000/svg">
<g clip-path="url(#clip0_54_10)">
<path d="M5.33335 6.5C5.15654 6.5 4.98697 6.44732 4.86195 6.35355C4.73693 6.25979 4.66669 6.13261 4.66669 6C4.66669 5.86739 4.73693 5.74021 4.86195 5.64645C4.98697 5.55268 5.15654 5.5 5.33335 5.5C5.51016 5.5 5.67973 5.55268 5.80476 5.64645C5.92978 5.74021 6.00002 5.86739 6.00002 6C6.00002 6.13261 5.92978 6.25979 5.80476 6.35355C5.67973 6.44732 5.51016 6.5 5.33335 6.5ZM5.33335 8.5C5.15654 8.5 4.98697 8.44732 4.86195 8.35355C4.73693 8.25979 4.66669 8.13261 4.66669 8C4.66669 7.86739 4.73693 7.74021 4.86195 7.64645C4.98697 7.55268 5.15654 7.5 5.33335 7.5C5.51016 7.5 5.67973 7.55268 5.80476 7.64645C5.92978 7.74021 6.00002 7.86739 6.00002 8C6.00002 8.13261 5.92978 8.25979 5.80476 8.35355C5.67973 8.44732 5.51016 8.5 5.33335 8.5ZM7.33335 8C7.33335 8.13261 7.40359 8.25979 7.52862 8.35355C7.65364 8.44732 7.82321 8.5 8.00002 8.5C8.17683 8.5 8.3464 8.44732 8.47142 8.35355C8.59645 8.25979 8.66669 8.13261 8.66669 8C8.66669 7.86739 8.59645 7.74021 8.47142 7.64645C8.3464 7.55268 8.17683 7.5 8.00002 7.5C7.82321 7.5 7.65364 7.55268 7.52862 7.64645C7.40359 7.74021 7.33335 7.86739 7.33335 8ZM10.6667 8.5C10.4899 8.5 10.3203 8.44732 10.1953 8.35355C10.0703 8.25979 10 8.13261 10 8C10 7.86739 10.0703 7.74021 10.1953 7.64645C10.3203 7.55268 10.4899 7.5 10.6667 7.5C10.8435 7.5 11.0131 7.55268 11.1381 7.64645C11.2631 7.74021 11.3334 7.86739 11.3334 8C11.3334 8.13261 11.2631 8.25979 11.1381 8.35355C11.0131 8.44732 10.8435 8.5 10.6667 8.5ZM7.33335 6C7.33335 6.13261 7.40359 6.25979 7.52862 6.35355C7.65364 6.44732 7.82321 6.5 8.00002 6.5C8.17683 6.5 8.3464 6.44732 8.47142 6.35355C8.59645 6.25979 8.66669 6.13261 8.66669 6C8.66669 5.86739 8.59645 5.74021 8.47142 5.64645C8.3464 5.55268 8.17683 5.5 8.00002 5.5C7.82321 5.5 7.65364 5.55268 7.52862 5.64645C7.40359 5.74021 7.33335 5.86739 7.33335 6ZM10.6667 6.5C10.4899 6.5 10.3203 6.44732 10.1953 6.35355C10.0703 6.25979 10 6.13261 10 6C10 5.86739 10.0703 5.74021 10.1953 5.64645C10.3203 5.55268 10.4899 5.5 10.6667 5.5C10.8435 5.5 11.0131 5.55268 11.1381 5.64645C11.2631 5.74021 11.3334 5.86739 11.3334 6C11.3334 6.13261 11.2631 6.25979 11.1381 6.35355C11.0131 6.44732 10.8435 6.5 10.6667 6.5ZM5.33335 3.5C5.15654 3.5 4.98697 3.55268 4.86195 3.64645C4.73693 3.74021 4.66669 3.86739 4.66669 4C4.66669 4.13261 4.73693 4.25979 4.86195 4.35355C4.98697 4.44732 5.15654 4.5 5.33335 4.5H10.6667C10.8435 4.5 11.0131 4.44732 11.1381 4.35355C11.2631 4.25979 11.3334 4.13261 11.3334 4C11.3334 3.86739 11.2631 3.74021 11.1381 3.64645C11.0131 3.55268 10.8435 3.5 10.6667 3.5H5.33335Z" fill="#A7A7A7"/>
<path fill-rule="evenodd" clip-rule="evenodd" d="M4 1.5C3.46957 1.5 2.96086 1.65804 2.58579 1.93934C2.21071 2.22064 2 2.60218 2 3V9C2 9.39782 2.21071 9.77936 2.58579 10.0607C2.96086 10.342 3.46957 10.5 4 10.5H12C12.5304 10.5 13.0391 10.342 13.4142 10.0607C13.7893 9.77936 14 9.39782 14 9V3C14 2.60218 13.7893 2.22064 13.4142 1.93934C13.0391 1.65804 12.5304 1.5 12 1.5H4ZM12 2.5H4C3.82319 2.5 3.65362 2.55268 3.5286 2.64645C3.40357 2.74021 3.33333 2.86739 3.33333 3V9C3.33333 9.13261 3.40357 9.25979 3.5286 9.35355C3.65362 9.44732 3.82319 9.5 4 9.5H12C12.1768 9.5 12.3464 9.44732 12.4714 9.35355C12.5964 9.25979 12.6667 9.13261 12.6667 9V3C12.6667 2.86739 12.5964 2.74021 12.4714 2.64645C12.3464 2.55268 12.1768 2.5 12 2.5Z" fill="#A7A7A7"/>
</g>
<defs>
<clipPath id="clip0_54_10">
<rect width="16" height="12" fill="white"/>
</clipPath>
</defs>
</svg>
