<svg width="120" height="121" viewBox="0 0 120 121" fill="none" xmlns="http://www.w3.org/2000/svg">
<path d="M7.5 7.5625H112.5V113.438H7.5V7.5625Z" fill="#F5DE19"/>
<path d="M78.0338 90.2773C78.9284 92.1097 80.3183 93.6499 82.0434 94.7203C83.7684 95.7907 85.7584 96.3478 87.7838 96.3273C91.8713 96.3273 94.485 94.2665 94.485 91.4117C94.485 88.0086 91.8 86.791 87.3 84.8059L84.8325 83.7395C77.7075 80.6805 72.9825 76.8501 72.9825 68.7507C72.9825 61.2903 78.6075 55.607 87.4313 55.607C90.2877 55.3991 93.1416 56.0437 95.637 57.4605C98.1324 58.8773 100.159 61.0036 101.464 63.5741L93.75 68.5465C93.2476 67.2719 92.3728 66.1814 91.2416 65.4197C90.1105 64.6579 88.7764 64.2609 87.4163 64.2812C86.8229 64.2213 86.2236 64.2867 85.6567 64.4733C85.0897 64.6598 84.5675 64.9634 84.1234 65.3646C83.6792 65.7659 83.3228 66.2561 83.0769 66.8039C82.831 67.3517 82.7009 67.9452 82.695 68.5465C82.695 71.5299 84.5288 72.7399 88.7625 74.5965L91.23 75.6628C99.615 79.289 104.355 82.9833 104.355 91.2907C104.355 100.248 97.3763 105.157 88.005 105.157C84.3537 105.391 80.713 104.555 77.5223 102.75C74.3317 100.944 71.7274 98.2461 70.0238 94.9812L78.0338 90.2773ZM43.1775 91.1395C44.7263 93.9111 46.1363 96.2555 49.5263 96.2555C52.7663 96.2555 54.8138 94.9774 54.8138 90.0051V56.1742H64.68V90.1374C64.68 100.438 58.68 105.126 49.9463 105.126C46.8591 105.296 43.7931 104.521 41.1513 102.901C38.5096 101.281 36.4157 98.8934 35.145 96.0513L43.1775 91.1395Z" fill="black"/>
</svg>
