<svg width="10" height="10" viewBox="0 0 10 10" fill="none" xmlns="http://www.w3.org/2000/svg">
<path d="M0.333328 0.5V9.5H4.33333V7.75H5.66666V9.5H9.66666V0.5H0.333328ZM1.66666 1.5H3V2.5H1.66666V1.5ZM4.33333 1.5H5.66666V2.5H4.33333V1.5ZM7 1.5H8.33333V2.5H7V1.5ZM1.66666 3.5H3V4.5H1.66666V3.5ZM4.33333 3.5H5.66666V4.5H4.33333V3.5ZM7 3.5H8.33333V4.5H7V3.5ZM1.66666 5.5H3V6.5H1.66666V5.5ZM4.33333 5.5H5.66666V6.5H4.33333V5.5ZM7 5.5H8.33333V6.5H7V5.5ZM1.66666 7.5H3V8.5H1.66666V7.5ZM7 7.5H8.33333V8.5H7V7.5Z" fill="#A7A7A7"/>
</svg>
